<?xml version="1.0" encoding="UTF-8"?><svg id="Layer_2" xmlns="http://www.w3.org/2000/svg" viewBox="0 0 211.22 46.7"><defs><style>.cls-1,.cls-2,.cls-3,.cls-4{fill-rule:evenodd;}.cls-1,.cls-5{fill:#58595b;}.cls-2{fill:#60bb46;}.cls-3{fill:#b2b2b2;}.cls-4{fill:#7c7c7c;}.cls-6{fill:#000001;}</style></defs><g id="Layer_1-2"><path class="cls-5" d="M29.54,43.97v-2.83l-1.97,2.83h1.97Zm0,2.21v-1.5h-2.73v-.71l2.87-4.07h.63v4.07h.85v.71h-.85v1.5h-.77Zm-7.34-1.65l.81-.06c.06,.39,.2,.69,.42,.89,.22,.2,.48,.3,.79,.3,.38,0,.69-.14,.95-.42,.25-.28,.38-.65,.38-1.11s-.12-.79-.37-1.04c-.24-.25-.57-.38-.97-.38-.25,0-.47,.06-.67,.17-.2,.11-.35,.26-.47,.44l-.73-.11,.61-3.23h3.11v.74h-2.5l-.33,1.69c.38-.26,.77-.4,1.18-.4,.55,0,1.01,.19,1.39,.57,.38,.38,.56,.87,.56,1.47s-.17,1.06-.5,1.47c-.4,.51-.95,.76-1.65,.76-.57,0-1.04-.16-1.4-.48-.36-.32-.57-.74-.62-1.27Z"/><path class="cls-5" d="M85.08,43.81l1.1-.15c.13,.63,.34,1.08,.64,1.35,.3,.28,.67,.41,1.12,.41,.52,0,.96-.18,1.32-.54,.36-.36,.53-.8,.53-1.33s-.16-.92-.5-1.25c-.33-.33-.75-.49-1.26-.49-.21,0-.47,.04-.78,.12l.12-.96c.07,0,.13,.01,.18,.01,.47,0,.89-.12,1.27-.37,.38-.24,.56-.62,.56-1.13,0-.4-.14-.74-.41-1s-.63-.4-1.06-.4-.79,.14-1.07,.41c-.29,.27-.47,.68-.55,1.22l-1.1-.2c.14-.74,.44-1.31,.92-1.72,.48-.41,1.07-.61,1.78-.61,.49,0,.94,.1,1.35,.32,.41,.21,.73,.49,.95,.86,.22,.36,.33,.75,.33,1.16s-.1,.74-.31,1.05c-.21,.32-.52,.57-.93,.76,.53,.12,.94,.38,1.24,.76,.29,.38,.44,.87,.44,1.45,0,.78-.29,1.45-.86,2-.57,.55-1.3,.82-2.17,.82-.79,0-1.44-.24-1.96-.71-.52-.47-.82-1.08-.89-1.83m-3.45-.78v-4.04l-2.81,4.04h2.81Zm0,3.16v-2.14h-3.9v-1.02l4.1-5.82h.9v5.82h1.22v1.02h-1.22v2.14h-1.1Zm-9.38-2.59c0,.32,.07,.62,.22,.91,.15,.29,.37,.52,.66,.68,.29,.16,.61,.24,.95,.24,.53,0,.97-.17,1.31-.51,.34-.34,.51-.77,.51-1.29s-.18-.97-.52-1.32c-.35-.35-.79-.52-1.33-.52s-.95,.17-1.29,.51c-.34,.34-.51,.77-.51,1.28Zm.36-4.15c0,.43,.14,.77,.41,1.04,.27,.27,.63,.41,1.07,.41s.77-.13,1.04-.4c.27-.27,.4-.6,.4-.98s-.14-.75-.42-1.02c-.28-.28-.62-.41-1.04-.41s-.77,.14-1.05,.41c-.27,.27-.41,.59-.41,.97Zm.22,1.87c-.46-.17-.8-.41-1.02-.72-.22-.31-.33-.68-.33-1.12,0-.65,.23-1.2,.7-1.65,.47-.44,1.09-.67,1.87-.67s1.41,.23,1.89,.68c.48,.46,.71,1.01,.71,1.66,0,.42-.11,.78-.33,1.09-.22,.31-.55,.55-.99,.71,.55,.18,.96,.47,1.25,.87,.29,.4,.43,.88,.43,1.43,0,.77-.27,1.41-.81,1.93-.54,.52-1.26,.78-2.14,.78s-1.6-.26-2.14-.79c-.54-.52-.81-1.18-.81-1.96,0-.58,.15-1.07,.45-1.46,.3-.39,.72-.66,1.27-.8Zm-2.89,3.81v1.05h-5.94c0-.27,.04-.52,.13-.77,.15-.4,.4-.8,.73-1.19,.34-.39,.82-.84,1.44-1.35,.97-.8,1.63-1.43,1.98-1.9,.35-.47,.52-.91,.52-1.33s-.16-.8-.47-1.11c-.31-.3-.72-.45-1.23-.45-.53,0-.96,.16-1.28,.48-.32,.32-.48,.75-.48,1.32l-1.13-.11c.08-.84,.37-1.49,.88-1.93,.51-.44,1.19-.66,2.04-.66s1.54,.24,2.05,.72c.5,.48,.75,1.07,.75,1.78,0,.36-.07,.71-.22,1.06-.15,.35-.39,.71-.73,1.1-.34,.38-.91,.91-1.7,1.58-.66,.56-1.09,.93-1.28,1.13-.19,.2-.34,.4-.47,.6h4.41Zm-8.65,1.05v-1.25h1.25v1.25h-1.25Zm-3.45,0h-1.1v-7.02c-.27,.25-.61,.51-1.04,.76-.43,.25-.82,.44-1.16,.57v-1.07c.62-.29,1.16-.64,1.62-1.05,.46-.41,.79-.81,.98-1.2h.71v9.01Zm-11.11-2.38l1.1-.15c.13,.63,.34,1.08,.64,1.35,.3,.28,.67,.41,1.12,.41,.52,0,.96-.18,1.32-.54,.36-.36,.53-.8,.53-1.33s-.17-.92-.5-1.25c-.33-.33-.75-.49-1.26-.49-.21,0-.47,.04-.78,.12l.12-.96c.07,0,.13,.01,.18,.01,.47,0,.89-.12,1.27-.37,.38-.24,.56-.62,.56-1.13,0-.4-.14-.74-.41-1-.27-.27-.63-.4-1.06-.4s-.79,.14-1.07,.41c-.29,.27-.47,.68-.55,1.22l-1.1-.2c.14-.74,.44-1.31,.92-1.72,.48-.41,1.07-.61,1.78-.61,.49,0,.94,.1,1.35,.32,.41,.21,.73,.49,.95,.86,.22,.36,.33,.75,.33,1.16s-.1,.74-.31,1.05c-.21,.32-.52,.57-.93,.76,.53,.12,.94,.38,1.24,.76,.29,.38,.44,.87,.44,1.45,0,.78-.29,1.45-.86,2-.57,.55-1.3,.82-2.17,.82-.79,0-1.44-.24-1.96-.71-.52-.47-.82-1.08-.89-1.83Zm-6.97,0l1.1-.15c.13,.63,.34,1.08,.64,1.35,.3,.28,.67,.41,1.12,.41,.52,0,.96-.18,1.32-.54,.36-.36,.53-.8,.53-1.33s-.17-.92-.5-1.25c-.33-.33-.75-.49-1.26-.49-.21,0-.47,.04-.78,.12l.12-.96c.07,0,.13,.01,.18,.01,.47,0,.89-.12,1.27-.37,.38-.24,.56-.62,.56-1.13,0-.4-.14-.74-.41-1-.27-.27-.63-.4-1.06-.4s-.79,.14-1.07,.41c-.29,.27-.47,.68-.55,1.22l-1.1-.2c.14-.74,.44-1.31,.92-1.72,.48-.41,1.07-.61,1.78-.61,.49,0,.94,.1,1.35,.32,.41,.21,.73,.49,.95,.86,.22,.36,.33,.75,.33,1.16s-.1,.74-.31,1.05c-.21,.32-.52,.57-.93,.76,.53,.12,.94,.38,1.24,.76,.29,.38,.44,.87,.44,1.45,0,.78-.29,1.45-.86,2-.57,.55-1.3,.82-2.17,.82-.79,0-1.44-.24-1.96-.71-.52-.47-.82-1.08-.89-1.83Zm-6.97,0l1.1-.15c.13,.63,.34,1.08,.64,1.35,.3,.28,.67,.41,1.12,.41,.52,0,.96-.18,1.32-.54,.36-.36,.53-.8,.53-1.33s-.17-.92-.5-1.25c-.33-.33-.75-.49-1.26-.49-.21,0-.47,.04-.78,.12l.12-.96c.07,0,.13,.01,.18,.01,.47,0,.89-.12,1.27-.37,.38-.24,.56-.62,.56-1.13,0-.4-.14-.74-.41-1-.27-.27-.63-.4-1.06-.4s-.79,.14-1.07,.41c-.29,.27-.47,.68-.55,1.22l-1.1-.2c.14-.74,.44-1.31,.92-1.72,.48-.41,1.07-.61,1.78-.61,.49,0,.94,.1,1.35,.32,.41,.21,.73,.49,.95,.86,.22,.36,.33,.75,.33,1.16s-.1,.74-.31,1.05c-.21,.32-.52,.57-.93,.76,.53,.12,.94,.38,1.24,.76,.29,.38,.44,.87,.44,1.45,0,.78-.29,1.45-.86,2-.57,.55-1.3,.82-2.17,.82-.79,0-1.44-.24-1.96-.71-.52-.47-.82-1.08-.89-1.83Z"/><path class="cls-1" d="M13.03,41.3c0,.4,.05,.6,.19,.94,.08,.2,.24,.47,.36,.65,.02,.02,.02,.03,.04,.06l.13,.18c.05,.08,.29,.35,.37,.45,.03,.04,.07,.06,.1,.1l.3,.3c.08,.08,.38,.3,.46,.36,.45,.3,1.07,.55,1.68,.34,.27-.09,.47-.24,.67-.43,.04-.04,.09-.07,.14-.13,.14-.16,.08-.35-.05-.49-.15-.17-.49-.46-.68-.56-.36-.18-.56,.01-.82,.27-.12,.12-.16,.16-.33,.16-.3,0-.75-.5-.94-.72-.19-.23-.56-.71-.41-1,.01-.03,.06-.09,.08-.11,.08-.07,.12-.08,.21-.16,.02-.02,.03-.02,.05-.04,.02-.02,.02-.02,.05-.04,.27-.21,.23-.52,.07-.79-.03-.06-.07-.11-.1-.17-.12-.18-.19-.31-.35-.46-.12-.11-.26-.11-.4-.04-.06,.04-.1,.08-.15,.12-.22,.18-.37,.32-.51,.58-.09,.17-.17,.45-.17,.66m2.5-3.55c2.47,0,4.47,2,4.47,4.47s-2,4.47-4.47,4.47-4.47-2-4.47-4.47,2-4.47,4.47-4.47Z"/><path class="cls-6" d="M38.84,0h-15.27l-4.08,22.51h5.96l2.99-16.5h9.17c1.26,0,2.08,.99,1.85,2.26l-2.54,14c-.22,1.22-1.4,2.26-2.67,2.26H1.08l-1.08,5.96H33.32c4.47,0,8.79-3.66,9.6-8.13l2.58-14.23c.81-4.47-2.19-8.13-6.66-8.13"/><path class="cls-6" d="M53.54,18.25h13.25l1.09-6.01h-13.25l-1.09,6.01Zm-1.48-2.98l.81-4.49,.46-2.51c.23-1.26,1.45-2.26,2.67-2.26h13.01l1.09-6.01h-13.1c-4.47,0-8.79,3.66-9.6,8.13l-2.58,14.23c-.81,4.47,2.19,8.13,6.66,8.13h13.1l1.08-5.96h-13.01c-1.22,0-2.07-1.04-1.85-2.26l.36-2,.37-2.02,.54-2.98Z"/><path class="cls-6" d="M118.29,8.13c.81-4.47-2.19-8.13-6.66-8.13h-8.58c-4.47,0-8.79,3.66-9.6,8.13l-2.97,16.4h-14.58c-1.22,0-2.07-1.04-1.85-2.26l2.54-14c.23-1.26,1.45-2.26,2.67-2.26h12.45l1.09-6.01h-12.54c-4.47,0-8.79,3.66-9.6,8.13l-2.58,14.23c-.81,4.47,2.19,8.13,6.66,8.13h20.63l.46-2.54,2.88-15.9,.68-3.78c.23-1.26,1.45-2.26,2.67-2.26h8.36c1.26,0,2.08,.99,1.85,2.26l-1.28,7.05-10.86,.04-1.09,6.01,10.86-.04-1.66,9.17h6.01l4.05-22.36Z"/><polygon class="cls-4" points="18.33 16.58 2.51 16.58 1.43 22.51 17.26 22.51 18.33 16.58"/><polygon class="cls-3" points="19.79 8.42 3.96 8.42 2.89 14.35 18.71 14.35 19.79 8.42"/><polygon class="cls-2" points="21.25 0 5.43 0 4.36 5.93 20.18 5.93 21.25 0"/><path class="cls-6" d="M205.51,40.43l1.26-6h.65l-1.12,5.37h3.07l-.13,.63h-3.71Zm-4.92-1.87l.41-.62h2.94l-.09,.62h-3.26Zm-1.44,1.87l3.65-6h.65l1.13,6h-.69l-.95-5.39,.14-.02-3.22,5.41h-.7Zm-3.31,.09c-.74,0-1.27-.22-1.59-.66-.32-.44-.39-1.06-.22-1.88l.74-3.55h.65l-.75,3.59c-.13,.64-.09,1.12,.13,1.43,.22,.31,.61,.46,1.17,.46s1.02-.15,1.37-.46c.36-.31,.6-.78,.74-1.43l.75-3.59h.63l-.74,3.55c-.11,.55-.3,1.01-.57,1.38-.26,.38-.59,.66-.98,.86-.39,.2-.83,.29-1.33,.29Zm-5.64,0c-.3,0-.55-.02-.75-.06-.2-.04-.38-.1-.53-.18-.15-.08-.32-.17-.49-.27l.15-.7c.16,.16,.39,.31,.68,.43,.3,.13,.66,.19,1.09,.19,.46,0,.81-.1,1.05-.29,.25-.19,.4-.44,.47-.74,.05-.25,.03-.45-.08-.61-.11-.15-.26-.28-.45-.38-.19-.1-.4-.19-.62-.28-.19-.07-.38-.15-.56-.23-.18-.08-.34-.18-.48-.31-.14-.12-.23-.28-.29-.48-.05-.19-.05-.44,0-.73,.03-.16,.1-.33,.2-.51,.1-.18,.24-.35,.41-.5,.17-.16,.39-.28,.65-.38,.26-.1,.56-.14,.9-.14,.23,0,.43,.02,.59,.05,.16,.03,.31,.08,.44,.14,.14,.06,.29,.14,.46,.23l-.14,.67c-.14-.09-.27-.17-.39-.25-.13-.07-.27-.14-.43-.18-.16-.05-.36-.07-.61-.07-.29,0-.54,.04-.73,.13-.19,.08-.35,.19-.46,.33-.11,.14-.18,.28-.21,.44-.05,.25-.04,.44,.04,.58,.08,.14,.21,.26,.39,.36,.18,.09,.39,.18,.64,.27,.19,.07,.39,.15,.58,.24,.19,.09,.36,.19,.5,.32,.14,.13,.25,.29,.31,.49,.06,.19,.07,.44,0,.72-.06,.27-.17,.54-.35,.8-.17,.26-.42,.48-.75,.65-.32,.17-.74,.26-1.25,.26Zm-3.86-.09l1.26-6h.65l-1.26,6h-.65Zm-3.88,0l-1.05-6h.69l.94,5.45h-.23l3.18-5.43,.67-.02-3.56,6h-.64Zm-8.22-.52c.47,0,.88-.09,1.21-.26,.34-.17,.61-.44,.83-.81,.22-.37,.39-.83,.51-1.4,.12-.57,.15-1.04,.08-1.4-.06-.36-.23-.63-.49-.81-.26-.18-.63-.27-1.1-.27s-.87,.09-1.21,.27c-.34,.18-.61,.45-.83,.81-.22,.36-.39,.83-.5,1.4-.12,.57-.15,1.04-.08,1.4,.06,.37,.23,.64,.49,.81,.26,.17,.63,.26,1.1,.26Zm-.13,.61c-.59,0-1.06-.12-1.42-.35-.35-.23-.58-.57-.68-1.03-.11-.46-.09-1.03,.06-1.71,.21-1.02,.6-1.79,1.16-2.31,.56-.52,1.29-.78,2.17-.78,.6,0,1.07,.12,1.42,.35,.35,.23,.58,.57,.68,1.03,.11,.46,.09,1.03-.06,1.71-.21,1.02-.6,1.79-1.16,2.31-.56,.52-1.29,.78-2.18,.78Zm-5.53-6.63h-.41c0-.22,.03-.4,.12-.55,.09-.15,.21-.26,.35-.34,.14-.08,.27-.12,.4-.12,.14,0,.27,.03,.37,.09,.1,.06,.19,.12,.27,.2,.08,.07,.15,.14,.22,.2,.07,.06,.15,.09,.24,.09,.08,0,.16-.04,.22-.11,.06-.08,.09-.18,.09-.32h.47c0,.17-.04,.33-.13,.47-.08,.14-.2,.25-.34,.34-.14,.08-.31,.13-.48,.13-.13,0-.25-.03-.34-.09-.1-.06-.18-.12-.26-.19-.08-.07-.15-.14-.22-.19s-.14-.09-.22-.09c-.08,0-.15,.04-.23,.12-.07,.08-.11,.2-.11,.38Zm-1.84,4.67l.41-.62h2.94l-.09,.62h-3.26Zm-1.44,1.87l3.65-6h.65l1.13,6h-.69l-.95-5.39,.14-.02-3.22,5.41h-.7Zm-3.79,.99l.95-1.03h.51l-.78,1.03h-.68Zm1.27-.92c-.92,0-1.56-.26-1.92-.77-.36-.52-.43-1.28-.21-2.3,.21-1.02,.61-1.79,1.18-2.3,.57-.52,1.32-.77,2.24-.77,.32,0,.62,.04,.91,.12,.29,.08,.56,.19,.82,.32l-.13,.62c-.24-.15-.51-.26-.78-.34-.28-.07-.57-.11-.88-.11-.5,0-.93,.09-1.29,.26-.36,.17-.65,.44-.88,.8-.23,.36-.4,.83-.52,1.4-.12,.57-.14,1.04-.06,1.4,.08,.36,.26,.63,.54,.8,.28,.17,.68,.26,1.18,.26,.31,0,.61-.04,.92-.11,.31-.07,.62-.18,.92-.33l-.13,.62c-.21,.09-.42,.17-.64,.23-.21,.07-.43,.12-.64,.15-.21,.03-.43,.05-.64,.05Zm-7.42-1.94l.41-.62h2.94l-.09,.62h-3.26Zm-1.44,1.87l3.65-6h.65l1.13,6h-.69l-.95-5.39,.14-.02-3.22,5.41h-.7Zm-2.51,.07c-.92,0-1.56-.26-1.92-.77-.36-.52-.43-1.28-.21-2.3,.21-1.02,.61-1.79,1.18-2.3,.57-.52,1.32-.77,2.24-.77,.32,0,.62,.04,.91,.12,.29,.08,.56,.19,.82,.32l-.13,.62c-.24-.15-.51-.26-.78-.34-.28-.07-.57-.11-.88-.11-.5,0-.93,.09-1.29,.26-.36,.17-.65,.44-.88,.8-.23,.36-.4,.83-.52,1.4-.12,.57-.14,1.04-.06,1.4,.08,.36,.26,.63,.54,.8,.28,.17,.68,.26,1.18,.26,.31,0,.61-.04,.92-.11,.31-.07,.62-.18,.92-.33l-.13,.62c-.21,.09-.42,.17-.64,.23-.21,.07-.43,.12-.64,.15-.21,.03-.43,.05-.64,.05Zm-4.67-.07l1.26-6h.65l-1.26,6h-.65Zm-6.49,0l1.26-6h.74l2.63,5.28-.21,.25,1.16-5.53h.65l-1.26,6h-.73l-2.74-5.48,.36-.28-1.21,5.75h-.65Zm-3.89,.09c-.74,0-1.27-.22-1.59-.66-.32-.44-.39-1.06-.22-1.88l.74-3.55h.65l-.75,3.59c-.13,.64-.09,1.12,.13,1.43,.22,.31,.61,.46,1.17,.46s1.02-.15,1.37-.46c.36-.31,.6-.78,.74-1.43l.75-3.59h.63l-.74,3.55c-.11,.55-.3,1.01-.57,1.38-.26,.38-.59,.66-.98,.86-.39,.2-.83,.29-1.33,.29Zm-9.39-.09l1.26-6h.7l1.51,3.41-.46,.1,3.08-3.51h.7l-1.26,6h-.65l1.12-5.35h.29l-3.2,3.47-1.57-3.4,.3-.33-1.18,5.61h-.65Zm-3.89-.52c.47,0,.88-.09,1.21-.26,.34-.17,.61-.44,.83-.81,.22-.37,.39-.83,.51-1.4,.12-.57,.15-1.04,.08-1.4-.06-.36-.23-.63-.49-.81-.26-.18-.63-.27-1.1-.27s-.87,.09-1.21,.27c-.34,.18-.61,.45-.83,.81-.22,.36-.39,.83-.5,1.4-.12,.57-.15,1.04-.08,1.4,.06,.37,.23,.64,.49,.81,.26,.17,.63,.26,1.1,.26Zm-.13,.61c-.59,0-1.07-.12-1.42-.35-.35-.23-.58-.57-.68-1.03-.11-.46-.09-1.03,.06-1.71,.21-1.02,.6-1.79,1.16-2.31,.56-.52,1.29-.78,2.17-.78,.6,0,1.07,.12,1.42,.35,.35,.23,.58,.57,.68,1.03,.11,.46,.09,1.03-.06,1.71-.21,1.02-.6,1.79-1.16,2.31-.56,.52-1.29,.78-2.18,.78Zm-5.54-.02c-.92,0-1.56-.26-1.92-.77-.36-.52-.43-1.28-.21-2.3,.21-1.02,.61-1.79,1.18-2.3,.57-.52,1.32-.77,2.24-.77,.32,0,.62,.04,.91,.12,.29,.08,.56,.19,.82,.32l-.13,.62c-.24-.15-.51-.26-.78-.34-.28-.07-.57-.11-.88-.11-.5,0-.93,.09-1.29,.26-.36,.17-.65,.44-.88,.8-.23,.36-.4,.83-.52,1.4s-.14,1.04-.06,1.4c.08,.36,.26,.63,.54,.8,.28,.17,.68,.26,1.18,.26,.31,0,.61-.04,.92-.11,.31-.07,.62-.18,.92-.33l-.13,.62c-.21,.09-.42,.17-.64,.23-.21,.07-.43,.12-.64,.15-.21,.03-.43,.05-.64,.05Z"/><polygon class="cls-6" points="211.22 0 203.72 0 189.19 15.27 197.7 30.49 205.2 30.49 196.69 15.27 211.22 0"/><polygon class="cls-6" points="186.42 0 180.4 30.49 186.36 30.49 192.38 0 186.42 0"/><path class="cls-6" d="M166.46,15.31h-1.81l-1.19,6.01h10.62l-1.81,9.17h6.01l4.42-22.36c.88-4.47-2.05-8.13-6.53-8.13h-8.58c-4.47,0-8.85,3.66-9.74,8.13l-4.42,22.36h5.96l4.39-22.22c.25-1.26,1.49-2.26,2.7-2.26h8.36c1.26,0,2.06,.99,1.81,2.26l-1.39,7.05h-8.81Z"/><path class="cls-6" d="M157.92,0h-23.49l-1.19,6.01h8.76l-.59,2.98-3.07,15.54h-12.98c-1.22,0-2.07-1.04-1.85-2.26L127.56,0h-5.96l-4.05,22.36c-.81,4.47,2.19,8.13,6.66,8.13h18.93l4.84-24.48h8.76l1.19-6.01Z"/></g></svg>